<svg id="Capa_1" enable-background="new 0 0 512 512" height="512" viewBox="0 0 512 512" width="512" xmlns="http://www.w3.org/2000/svg"><g><g><g><g><g><path d="m322.179 346.337v107.623h-132.358v-107.623h40.63v35.613c0 14.11 11.438 25.548 25.548 25.548 14.11 0 25.548-11.438 25.548-25.548v-35.613z" fill="#7a6e79"/><g fill="#685e67"><path d="m287.73 346.337h34.449v107.623h-34.449z"/><path d="m281.548 346.337h40.63v34.49h-40.63z"/><path d="m189.821 346.337h40.63v34.49h-40.63z"/></g><path d="m512 59.658v248.119h-369.104v-268.723h348.5c11.384 0 20.604 9.231 20.604 20.604z" fill="#f2eff2"/><path d="m148.047 39.054v268.723h-148.047v-248.119c0-11.373 9.22-20.604 20.604-20.604z" fill="#21c1f8"/><path d="m115.72 39.054h32.327v268.723h-32.327z" fill="#1faaee"/><path d="m512 59.658v248.119h-39.579v-248.119c0-11.373-9.22-20.604-20.604-20.604h39.579c11.384 0 20.604 9.231 20.604 20.604z" fill="#e1dde1"/><path d="m512 302.626v33.378c0 11.383-9.22 20.604-20.604 20.604h-470.792c-11.384 0-20.604-9.221-20.604-20.604v-33.378z" fill="#918291"/><path d="m512 302.626v33.378c0 11.383-9.22 20.604-20.604 20.604h-39.58c11.383 0 20.604-9.22 20.604-20.604v-33.378z" fill="#7a6e79"/><g><path d="m347.768 472.941h-183.536c-5.69 0-10.302-4.612-10.302-10.302v-14.243c0-5.69 4.612-10.302 10.302-10.302h183.536c5.69 0 10.302 4.612 10.302 10.302v14.243c0 5.689-4.613 10.302-10.302 10.302z" fill="#918291"/><path d="m358.07 448.396v14.247c0 5.687-4.615 10.302-10.302 10.302h-28.268c5.687 0 10.302-4.615 10.302-10.302v-14.247c0-5.686-4.615-10.302-10.302-10.302h28.268c5.687.001 10.302 4.616 10.302 10.302z" fill="#7a6e79"/></g></g><g><path d="m202.761 461.84-13.751-176.604c-.418-5.363-4.891-9.502-10.271-9.502h-123.058c-5.379 0-9.853 4.139-10.271 9.502l-13.751 176.604c-.466 5.987 4.266 11.102 10.271 11.102h150.561c6.004-.001 10.736-5.116 10.27-11.102z" fill="#fee265"/><path d="m103.391 462.596c-.477 5.565 3.911 10.345 9.497 10.345h65.879v-170.307h-52.913c-4.948 0-9.074 3.787-9.497 8.717" fill="#fdd330"/><path d="m192.489 472.946h-31.626c6.006 0 10.734-5.12 10.271-11.105l-13.753-176.604c-.412-5.367-4.893-9.498-10.271-9.498h31.627c5.388 0 9.859 4.131 10.271 9.498l13.752 176.603c.464 5.986-4.265 11.106-10.271 11.106z" fill="#fdd330"/><g><path d="m122.327 384.228c-27.148 0-49.234-22.086-49.234-49.233v-30.177c0-4.267 3.459-7.726 7.726-7.726 4.268 0 7.726 3.459 7.726 7.726v30.177c0 18.627 15.154 33.781 33.782 33.781 18.627 0 33.781-15.154 33.781-33.781v-30.177c0-4.267 3.459-7.726 7.726-7.726s7.726 3.459 7.726 7.726v30.177c0 27.147-22.085 49.233-49.233 49.233z" fill="#edbe26"/></g></g><g><g><path d="m139.636 311.351-12.966 151.245c-.477 5.565 3.911 10.345 9.497 10.345h114.116c5.585 0 9.974-4.781 9.497-10.345l-12.965-151.245c-.423-4.93-4.548-8.717-9.497-8.717h-88.185c-4.949 0-9.075 3.787-9.497 8.717z" fill="#fb3a82"/><path d="m250.279 472.946h-33.255c5.585 0 9.979-4.785 9.493-10.351l-12.963-151.244c-.419-4.928-4.546-8.721-9.493-8.721h33.255c4.947 0 9.074 3.793 9.493 8.721l12.972 151.244c.478 5.566-3.916 10.351-9.502 10.351z" fill="#fb1466"/></g><g><g><path d="m194.401 450.043c-16.797 0-30.462-13.665-30.462-30.462s13.665-30.462 30.462-30.462c7.96 0 15.49 3.051 21.203 8.591 2.965 2.876 3.144 7.575.405 10.669l-15.89 17.949c-2.828 3.194-7.711 3.49-10.906.663-3.195-2.828-3.492-7.712-.663-10.907l9.742-11.005c-1.256-.335-2.561-.508-3.891-.508-8.276 0-15.009 6.733-15.009 15.009s6.733 15.01 15.009 15.01c5.747 0 10.903-3.205 13.458-8.364 1.894-3.822 6.529-5.389 10.353-3.495 3.824 1.893 5.389 6.528 3.496 10.353-5.18 10.461-15.643 16.959-27.307 16.959z" fill="#e01058"/></g></g></g><g><path d="m193.225 376.006c-18.328 0-33.239-14.911-33.239-33.239v-13.15c0-4.267 3.459-7.726 7.726-7.726 4.268 0 7.726 3.459 7.726 7.726v13.15c0 9.807 7.979 17.786 17.786 17.786 9.808 0 17.787-7.979 17.787-17.786v-13.15c0-4.267 3.459-7.726 7.726-7.726s7.726 3.459 7.726 7.726v13.15c.001 18.328-14.91 33.239-33.238 33.239z" fill="#e01058"/></g></g><g><g><g><g><g><path d="m378.18 192.028c-3.463 0-6.614-2.345-7.49-5.857l-7.027-28.139h-24.012c-4.268 0-7.726-3.459-7.726-7.726s3.459-7.726 7.726-7.726h30.046c3.546 0 6.637 2.414 7.496 5.855l8.489 33.993c1.034 4.14-1.484 8.334-5.624 9.368-.628.156-1.258.232-1.878.232z" fill="#b5adb6"/></g></g><path d="m473.596 242.016c0-4.267-3.459-7.726-7.726-7.726h-71.47v-15.997c0-4.267-3.459-7.726-7.726-7.726s-7.726 3.459-7.726 7.726v17.592c0 2.399.614 4.657 1.691 6.627-2.941 3.683-4.711 8.34-4.711 13.409 0 11.878 9.663 21.541 21.54 21.541s21.54-9.663 21.54-21.541c0-2.148-.325-4.219-.913-6.178h9.963c-.588 1.959-.913 4.03-.913 6.178 0 11.878 9.663 21.541 21.54 21.541 11.878 0 21.541-9.663 21.541-21.541 0-2.409-.415-4.718-1.147-6.883 2.663-1.22 4.517-3.902 4.517-7.022zm-76.128 19.992c-3.357 0-6.088-2.731-6.088-6.088s2.73-6.088 6.088-6.088 6.088 2.731 6.088 6.088c-.001 3.357-2.731 6.088-6.088 6.088zm51.217 0c-3.357 0-6.088-2.731-6.088-6.088s2.73-6.088 6.088-6.088 6.089 2.731 6.089 6.088-2.732 6.088-6.089 6.088z" fill="#b5adb6"/><g><path d="m469.865 176.303-7.045 33.534c-1.036 4.93-5.384 8.46-10.422 8.46h-69.948c-2.364 0-4.425-1.609-4.997-3.903l-9.515-38.112c-.812-3.251 1.647-6.399 4.997-6.399h91.719c3.381 0 5.906 3.111 5.211 6.42z" fill="#fb3a82"/></g><g><path d="m469.861 176.305-7.04 33.536c-1.033 4.931-5.389 8.456-10.426 8.456h-24.878c5.037 0 9.382-3.525 10.415-8.456l7.05-33.536c.692-3.312-1.832-6.422-5.208-6.422h24.878c3.388 0 5.912 3.11 5.209 6.422z" fill="#fb1466"/></g></g></g><g><g><g><path d="m305.843 264.789h-42.119c-4.268 0-7.726-3.459-7.726-7.726s3.459-7.726 7.726-7.726h42.119c4.268 0 7.726 3.459 7.726 7.726 0 4.266-3.458 7.726-7.726 7.726z" fill="#cecece"/></g><g><g><path d="m301.126 277.461c-1.977 0-3.955-.755-5.464-2.263-3.017-3.017-3.017-7.909 0-10.927l7.209-7.209-7.209-7.209c-3.017-3.017-3.017-7.909 0-10.927 3.018-3.017 7.909-3.017 10.928 0l12.672 12.672c3.017 3.017 3.017 7.909 0 10.927l-12.672 12.672c-1.51 1.509-3.487 2.264-5.464 2.264z" fill="#cecece"/></g></g></g><g><path d="m303.491 220.26h-96.363c-5.69 0-10.302-4.612-10.302-10.302v-26.688c0-5.69 4.612-10.302 10.302-10.302h96.363c5.69 0 10.302 4.612 10.302 10.302v26.688c0 5.69-4.612 10.302-10.302 10.302z" fill="#23f1a8"/><path d="m313.797 183.265v26.692c0 5.687-4.615 10.302-10.302 10.302h-26.692c5.697 0 10.302-4.615 10.302-10.302v-26.692c0-5.687-4.605-10.302-10.302-10.302h26.692c5.687 0 10.302 4.616 10.302 10.302z" fill="#26d192"/></g></g></g><g><path d="m103.998 182.754h-62.943c-4.268 0-7.726-3.459-7.726-7.726s3.459-7.726 7.726-7.726h62.943c4.268 0 7.726 3.459 7.726 7.726s-3.458 7.726-7.726 7.726z" fill="#0b9ed8"/></g><g><path d="m103.998 211.787h-62.943c-4.268 0-7.726-3.459-7.726-7.726s3.459-7.726 7.726-7.726h62.943c4.268 0 7.726 3.459 7.726 7.726s-3.458 7.726-7.726 7.726z" fill="#0b9ed8"/></g><g><path d="m103.998 240.82h-62.943c-4.268 0-7.726-3.459-7.726-7.726s3.459-7.726 7.726-7.726h62.943c4.268 0 7.726 3.459 7.726 7.726s-3.458 7.726-7.726 7.726z" fill="#0b9ed8"/></g></g><g><g><path d="m73.797 141.763c-17.796 0-32.274-14.478-32.274-32.274s14.478-32.274 32.274-32.274c8.434 0 16.411 3.233 22.465 9.103 2.965 2.876 3.144 7.575.405 10.668l-17.156 19.38c-2.828 3.195-7.711 3.492-10.906.664s-3.492-7.711-.663-10.906l11.158-12.606c-1.69-.559-3.476-.851-5.303-.851-9.275 0-16.821 7.546-16.821 16.821s7.546 16.821 16.821 16.821c6.441 0 12.22-3.592 15.083-9.373 1.893-3.825 6.529-5.39 10.352-3.495 3.824 1.894 5.389 6.529 3.495 10.353-5.488 11.084-16.573 17.969-28.93 17.969z" fill="#c9f0fd"/></g></g><g><g><path d="m217.371 82.286h-19.944c-4.268 0-7.726-3.459-7.726-7.726s3.459-7.726 7.726-7.726h19.944c4.268 0 7.726 3.459 7.726 7.726s-3.458 7.726-7.726 7.726z" fill="#cecece"/></g><g><path d="m288.454 112.579h-91.026c-4.268 0-7.726-3.459-7.726-7.726s3.459-7.726 7.726-7.726h91.026c4.268 0 7.726 3.459 7.726 7.726s-3.459 7.726-7.726 7.726z" fill="#cecece"/></g><g><path d="m288.454 136.692h-91.026c-4.268 0-7.726-3.459-7.726-7.726s3.459-7.726 7.726-7.726h91.026c4.268 0 7.726 3.459 7.726 7.726s-3.459 7.726-7.726 7.726z" fill="#cecece"/></g></g></g><g><g><circle cx="414.251" cy="104.764" fill="#23f1a8" r="37.276"/><path d="m451.527 104.765c0 20.581-16.69 37.271-37.28 37.271-4.93 0-9.643-.963-13.96-2.711 16.869-2.465 29.828-17.001 29.828-34.56 0-17.568-12.968-32.104-29.847-34.569 4.316-1.747 9.039-2.711 13.979-2.711 20.59 0 37.28 16.689 37.28 37.28z" fill="#26d192"/></g><g><g><path d="m409.115 121.231c-1.977 0-3.955-.755-5.464-2.263l-7.212-7.212c-3.017-3.017-3.017-7.909 0-10.927 3.018-3.017 7.909-3.017 10.928 0l1.748 1.749 12.021-12.022c3.018-3.017 7.909-3.017 10.928 0 3.017 3.017 3.017 7.909 0 10.927l-17.485 17.485c-1.51 1.508-3.487 2.263-5.464 2.263z" fill="#17998c"/></g></g></g></g></svg>